<svg width="20" height="20" viewBox="0 0 20 20" fill="none" xmlns="http://www.w3.org/2000/svg">
<path d="M10.5554 8.16842C10.7759 8.31572 10.929 8.5446 10.9807 8.80471C11.0325 9.06482 10.9789 9.33485 10.8316 9.5554C10.6843 9.77595 10.4554 9.92895 10.1953 9.98075C9.93518 10.0325 9.66515 9.97888 9.4446 9.83158C9.22405 9.68428 9.07105 9.4554 9.01925 9.19529C8.96746 8.93518 9.02112 8.66515 9.16842 8.4446C9.31572 8.22405 9.5446 8.07105 9.80471 8.01925C10.0648 7.96746 10.3348 8.02112 10.5554 8.16842L10.5554 8.16842Z" stroke="white" stroke-width="2" stroke-linecap="round" stroke-linejoin="round"/>
<path d="M5.84302 10.5494L4.72841 14.4506C4.36337 15.7282 5.3227 17 6.65146 17H7.29289C7.74565 17 8.17986 16.8201 8.5 16.5C8.82014 16.1799 9.25435 16 9.70711 16H10.2929C10.7456 16 11.1799 16.1799 11.5 16.5C11.8201 16.8201 12.2544 17 12.7071 17H13.3485C14.6773 17 15.6366 15.7282 15.2716 14.4506L14.157 10.5494C14.0544 10.1903 14.0544 9.80967 14.157 9.45056L15.2716 5.54944C15.6366 4.27181 14.6773 3 13.3485 3H12.7071C12.2544 3 11.8201 3.17986 11.5 3.5C11.1799 3.82014 10.7456 4 10.2929 4H9.70711C9.25435 4 8.82014 3.82014 8.5 3.5C8.17986 3.17986 7.74565 3 7.29289 3H6.65146C5.3227 3 4.36337 4.27181 4.72841 5.54944L5.84302 9.45056C5.94562 9.80967 5.94562 10.1903 5.84302 10.5494Z" stroke="white" stroke-width="2" stroke-linecap="round" stroke-linejoin="round"/>
</svg>
