<svg width="40" height="40" viewBox="0 0 40 40" fill="none" xmlns="http://www.w3.org/2000/svg">
<path d="M26.8164 0C28.2211 0 29.3603 1.13923 29.3603 2.54395V5.81348C30.9627 7.23085 31.9941 9.30381 31.9941 11.6631V25.6934C31.994 28.4349 31.0021 30.9434 29.3603 32.8848V37.457C29.3601 38.8615 28.2209 40 26.8164 40C25.412 39.9998 24.2737 38.8614 24.2734 37.457V36.2998C23.1939 36.6482 22.0431 36.8398 20.8476 36.8398C15.2822 36.8397 10.5697 32.7336 9.80663 27.2207L8.07616 14.7158C7.5073 10.6059 10.1915 6.74849 14.2432 5.85449L19.1885 4.7627C21.5046 4.2747 24.0392 5.28427 25.3017 7.19531C25.8733 8.0436 26.1898 9.04009 26.207 10.0645C26.2579 13.271 26.3764 16.478 26.5625 19.6846C26.6011 20.3495 26.6421 21.0147 26.6865 21.6797C26.6951 21.8079 26.7503 21.9308 26.8447 22.0215C26.9392 22.1122 27.0649 22.163 27.1953 22.1631C27.3258 22.1631 27.4514 22.1122 27.5459 22.0215C27.6404 21.9308 27.6955 21.808 27.7041 21.6797C27.7485 21.0147 27.7895 20.3495 27.8281 19.6846C28.0142 16.478 28.1337 13.2711 28.1846 10.0645C28.2088 8.67038 27.7877 7.25715 27 6.09277C26.3154 5.05609 25.3622 4.2299 24.2734 3.65332V2.54297C24.2737 1.13862 25.412 0.000227755 26.8164 0ZM19.1855 18C16.9384 18.0005 15.1162 19.7912 15.1162 22C15.1162 23.4929 15.9493 24.7945 17.1826 25.4814C17.8285 25.841 18.6184 25.8428 19.291 25.5361C21.0315 24.7422 22.2383 23.0101 22.2383 21C22.2383 20.6571 22.203 20.3224 22.1357 19.999C21.9816 19.2589 21.4876 18.6161 20.791 18.3223C20.2987 18.1147 19.7551 18 19.1855 18ZM17.1514 16C14.3421 16.0002 12.0644 18.2387 12.0644 21C12.0644 21.8031 12.2572 22.5621 12.5996 23.2344C13.0825 24.1823 14.0996 23.0638 14.0996 22C14.0996 19.2387 16.3773 17.0002 19.1865 17C19.4797 17 19.629 16.623 19.3642 16.4971C18.6952 16.1789 17.9444 16 17.1514 16Z" fill="white"/>
<circle cx="19.5" cy="21.0625" r="1.5" fill="#FF0000"/>
</svg>
